<?xml version="1.0" encoding="utf-8"?>
<!-- Generator: Adobe Illustrator 16.0.0, SVG Export Plug-In . SVG Version: 6.00 Build 0)  -->
<!DOCTYPE svg PUBLIC "-//W3C//DTD SVG 1.1//EN" "http://www.w3.org/Graphics/SVG/1.1/DTD/svg11.dtd">
<svg version="1.1" id="Layer_1" xmlns="http://www.w3.org/2000/svg" xmlns:xlink="http://www.w3.org/1999/xlink" x="0px" y="0px"
	 width="696.47px" height="287.059px" viewBox="0 0 696.47 287.059" enable-background="new 0 0 696.47 287.059"
	 xml:space="preserve">
<path fill="none" stroke="#010101" stroke-miterlimit="10" d="M412.372,171.247c-0.91-5.124-2.728-10.062-3.387-15.204
	c-0.765-5.929,0-11.939,0-17.931c0-5.989-1.239-12.393-5.183-16.792c-5.064-5.765-13.284-7.127-20.494-9.752
	c-12.391-4.461-23.257-13.425-36.332-14.459c-16.133-1.364-30.488,9.504-42.637,20.204c-12.143,10.699-25.301,23.795-27.367,40.133
	c-0.641,5.121,0.765,11.606,5.764,12.888c3.202,0.827,6.506-0.951,8.92-3.201c2.198-2.461,4.564-4.768,7.086-6.904
	c6.756-4.687,16.051-2.56,23.508,0.932c7.455,3.492,14.705,8.263,22.906,8.529c9.666,0.31,18.279-5.721,27.617-8.26
	c7.909-2.195,16.299-1.917,24.042,0.808c-5.966-2.913-12.275-5.074-18.776-6.424c-8.359-1.359-16.935-0.043-24.501,3.758
	c-5.515,2.792-10.842,6.981-17.02,6.613c-3.304-0.477-6.513-1.477-9.505-2.957c-11.498-4.489-24.183-4.926-35.963-1.239
	c11.867-6.95,26.104-8.606,39.246-4.566c6.9,2.065,13.367,5.889,20.555,6.755c11.052,1.347,21.707-4.133,32.778-5.288
	c3.628-0.579,7.35,0.065,10.575,1.817c3.245,1.91,4.662,5.863,3.369,9.399c-1.49,2.532-4.192,4.099-7.127,4.133
	c-2.885-0.009-5.756-0.362-8.551-1.052c-5.869-1.016-11.873-1.016-17.746,0c-3.139,0.535-7.064,2.972-5.739,5.845
	c4.647-1.22,9.566-0.474,14.458-0.412c4.897,0.062,10.083-0.87,13.219-4.504c-4.545-1.455-9.256-2.331-14.023-2.604
	c-4.814-0.254-9.545,1.325-13.242,4.421c7.394,7.08,18.898,7.563,26.857,1.121c-4.99-3.827-11-6.09-17.27-6.511
	c-4.321-0.533-8.68,0.666-12.126,3.328c-3.431,3.077-4.585,7.99-4.606,12.6c-0.016,3.604,0.541,7.191,1.65,10.623
	c1.51,4.625,3.695,10.47,0,13.668c-2.431,1.684-5.562,1.975-8.26,0.764c-2.639-1.231-5.349-2.293-8.119-3.179
	c-2.625-0.561-6.198,0.433-6.383,3.099c0.103,1.703,0.92,3.288,2.251,4.355l9.791,10.328c1.052,1.406,2.567,2.394,4.275,2.789
	c1.263-0.006,2.513-0.247,3.678-0.721c7.224-1.817,14.679,1.984,17.453,8.9c-9.157-1.34-18.474-1.213-27.594,0.371
	c-6.591,1.158-13.407,3.059-19.831,1.18c5.865-5.906,13.842-9.231,22.167-9.234c8.268,0.064,16.36,2.384,23.399,6.715
	c-0.494,3.408-3.529,5.869-6.631,7.414c-6.223,3.105-13.344,3.93-20.117,2.334c-5.68-1.67-11.074-4.186-16.008-7.461
	c-0.93-0.393-1.67-1.133-2.064-2.061c-0.599-2.065,2.064-3.369,4.131-3.781l18.219-3.717c0.393-2.543-2.232-4.462-4.502-5.639
	c-2.955-1.25-5.592-3.136-7.725-5.535c-1.922-2.562-2.356-6.547,0-8.758c2.912-2.811,7.684-1.158,11.38,0.495
	c3.7,1.649,8.798,2.786,11.177-0.478c1.529-2.061,1.009-4.996,0.455-7.537l-4.483-19.954c-0.452-1.285-0.452-2.684,0-3.966
	c0.562-0.941,1.421-1.662,2.437-2.068c4.897-2.31,10.637-1.774,15.986-0.805c5.354,0.976,10.743,2.378,16.111,1.616
	c5.375-0.765,10.805-4.384,11.652-9.73c0.409-1.78-0.139-3.641-1.445-4.916c-0.779-0.548-1.668-0.923-2.604-1.096
	c-9.752-2.431-20.023-1.78-29.393,1.857c-4.584,1.799-8.885,4.297-13.551,5.848c-4.643,1.836-9.812,1.836-14.459,0"/>
<path fill="none" stroke="#010101" stroke-miterlimit="10" d="M341.232,99.467c-8.512,6.837-20.658,6.198-30.982,9.998
	c-13.279,4.834-22.971,16.961-27.639,30.304c-4.665,13.345-4.874,27.824-3.76,41.91c0.176,4.263,0.961,8.479,2.334,12.517
	c1.053,2.725,2.581,5.244,3.861,7.889c3.656,7.52,5.205,15.844,7.105,23.965c1.389,6.652,3.515,13.129,6.34,19.312
	c10.037,19.754,30.722,31.795,52.86,30.758c4.037-0.162,8.013-1.057,11.733-2.645c3.598-1.811,6.913-4.131,9.852-6.879
	c8.253-7.861,15.163-17.025,20.451-27.123l9.023-17.972"/>
<path fill="none" stroke="#010101" stroke-miterlimit="10" d="M336.089,167.671c-12.439-1.959-25.155,1-35.445,8.26
	c8.654,4.362,18.751,4.87,27.802,1.406c-7.911-4.585-17.445-5.439-26.046-2.334c5.33,4.216,12.037,6.3,18.818,5.845
	c1.189,0.021,2.346-0.362,3.285-1.093c1.346-1.653,1.096-4.087-0.559-5.434c-1.658-1.232-3.677-1.879-5.744-1.839
	c-10.842-0.659-22.141,3.554-32.387,0c-1.471-0.399-2.765-1.275-3.678-2.499c-0.514-0.966-0.824-2.028-0.91-3.118
	c-1.198-8.263-2.311-16.94,1.098-24.5s11.092-12.744,18.403-17.143c8.86-5.33,17.93-10.452,25.798-17.145
	c3.823-3.243,7.622-7.003,12.52-8.077c5.369-1.198,12.248,0.621,15.553-3.779c3.303-4.4-0.125-10.535,1.076-15.781
	c2.774,0.466,5.332,1.813,7.288,3.842c1.365,1.404,2.378,3.101,3.802,4.441c1.35,1.468,3.355,2.138,5.312,1.779
	c1.619-0.434,2.579-2.099,2.148-3.718c-0.08-0.299-0.207-0.587-0.371-0.847c5.059-0.536,5.889,8.449,10.805,9.749
	c1.07,0.288,2.21,0.146,3.303,0.351c3.428,0.681,5.328,4.525,8.548,5.887c2.91,0.977,6.114,0.339,8.427-1.67
	c2.254-2.008,4.111-4.419,5.477-7.108c2.645-4.546,5.266-9.646,4.254-14.811c-1.012-5.164-5.27-9.15-5.353-14.272
	c0.198-1.43,0.065-2.885-0.39-4.255c-0.697-1.059-1.709-1.87-2.893-2.314c-7.658-4.039-16.34-5.721-24.952-4.831
	c-8.514,1.198-16.752,6.198-20.306,14.108c-2.064,4.419-1.857,10.699,2.414,12.972c4.275,2.274,10.639-1.303,15.248,1.074
	c1.318,0.683,2.396,1.839,3.777,2.417c2.59,0.831,5.43,0.082,7.269-1.921c1.776-1.994,3.146-4.317,4.03-6.839
	c1.158-1.943,1.431-4.288,0.743-6.444c-0.991-2.066-4.768-2.066-4.976,0.124c-1.098,0.412-1.736-1.322-1.365-2.438
	c0.639-0.986,0.806-2.205,0.455-3.327c-0.424-0.497-1.008-0.827-1.649-0.929c-10.913-2.704-22.414,1.04-29.644,9.646
	c-1.213,1.751-2.597,3.373-4.133,4.854c-4.42,3.367-10.671,2.831-14.457-1.24c-1.283-1.344-2.021-3.119-2.063-4.977
	c0.124-4.008,4.132-6.652,8.036-7.868c3.906-1.218,8.262-1.406,10.578,1.528c0.91,1.093,1.566,2.662,2.972,2.91
	c1.347-0.013,2.582-0.745,3.244-1.921c1.882-2.46,3.362-5.209,4.378-8.138c-7.477-2.048-15.48-0.423-21.567,4.381
	c-0.47-2.312-0.608-4.677-0.412-7.025c-2.327-0.077-4.358-1.605-5.081-3.82c-0.869-2.068-1.057-4.422-1.82-6.546
	c-2.851-7.87-12.6-10.681-20.965-10.763c-5.701,0-12.104,1.033-15.388,5.681c-1.757,2.501-2.521,5.909-5.187,7.396
	c-1.177,0.659-2.562,0.827-3.737,1.486c-2.651,1.839-3.841,5.157-2.954,8.261c0.887,2.983,2.165,5.841,3.799,8.491
	c1.676,3.303,2.955,6.961,5.618,9.542c2.664,2.58,7.416,3.573,9.978,0.889c0.805-0.847,1.303-1.921,2.064-2.832
	c3.076-3.718,8.965-2.891,13.446-1.074c4.483,1.816,9.235,4.336,13.841,2.932c-5.401,7.047-13.841,11.099-22.72,10.905
	c-3.905-0.124-7.913-1.052-11.649,0.124c-1.146,0.586-2.453,0.78-3.721,0.557c-1.527-0.557-2.062-2.438-2.561-3.987
	c-1.604-4.368-5.443-7.529-10.041-8.261c5.166-4.523,13.011-2.419,19.831-1.694c7.427,0.787,14.931-0.379,21.771-3.388
	c11.651-5.145,21.71-15.636,34.433-15.325c3.324,0,7.848,0.166,8.635-3.056c-7.799-1.957-14.629-6.667-19.229-13.261
	c-0.991-1.864-2.408-3.472-4.132-4.689c-1.389-0.611-2.886-0.935-4.401-0.95c-3.572-0.271-7.807-0.29-9.977,2.56
	c-0.656,1.18-1.395,2.311-2.209,3.387c-2.83,2.767-7.355,0.123-11.01-1.385c-3.57-1.461-7.525-1.687-11.234-0.641
	c3.965-4.889,8.096-9.644,12.394-14.272c1.806-2.327,4.214-4.122,6.96-5.184c7.23-2.063,14.232,5.97,21.648,4.688
	c0.477-1.895,1.688-3.524,3.365-4.523c3.988,8.3,5.387,17.603,4.031,26.708c1.572,1.034,3.74-0.581,4.131-2.438
	c0.129-1.876-0.104-3.766-0.682-5.554c-0.799-5.947,1.548-11.885,6.197-15.679c4.629-3.69,10.285-5.856,16.191-6.198
	c0.982-0.162,1.988-0.063,2.916,0.288c0.88,0.521,1.598,1.279,2.062,2.188c3.399,5.52,4.765,12.051,3.863,18.467
	c-4.067-8.474-14.234-12.049-22.711-7.986c-2.613,1.255-4.867,3.158-6.539,5.526c-1.658,2.048-2.336,4.72-1.857,7.312
	c1.406,5.27,8.468,6.074,13.879,5.559c3.613-0.353,8.264-1.715,8.431-5.351c0.164-2.438-1.858-4.419-3.802-5.929
	c-2.873-2.25-6.198-4.401-9.832-4.255c-3.635,0.145-7.288,3.678-6.199,7.147c1.1,3.471,6.199,4.295,9.443,2.497
	c3.244-1.794,5.331-5.101,7.746-7.95c1.919-2.251,5.12-4.359,7.578-2.75c1.004,0.801,1.765,1.869,2.186,3.079l8.019,17.455
	c-2.067,3.018-6.86,2.334-10.331,0.765s-6.98-3.76-10.535-2.686c-1.318,2.832,1.242,6.198,4.13,7.108
	c3.087,0.568,6.247,0.532,9.315-0.105c3.121-0.288,6.635,0,8.74,2.314c2.414,2.686,2.229,7.374,5.306,9.273
	c3.077,1.902,7.353-0.435,10.78,0.805c2.768,1.011,4.129,3.966,5.783,6.467c1.652,2.501,4.254,5,7.083,4.131
	c2.093-0.78,3.431-2.834,3.288-5.06c-0.201-2.178-1.109-4.232-2.582-5.847c-6.929-7.823-18.557-9.367-27.287-3.613
	c3.01-3.288,7.002-5.508,11.381-6.322c2.297-0.118,4.531-0.768,6.529-1.902c2.807-2.063,2.807-6.198,2.56-9.789l-0.845-12.187
	c0.016-0.839-0.195-1.667-0.619-2.396c-0.558-0.66-1.322-1.113-2.171-1.28c-3.981-1.034-8.216,0.148-11.089,3.097
	c-1.078-1.234-1.521-2.898-1.201-4.503c-4.613,1.395-9.041,3.354-13.176,5.825c-2.734,1.29-4.871,3.573-5.969,6.384
	c-1.078,3.966,1.689,7.828,4.275,11.011c2.637,3.537,5.742,6.701,9.234,9.399c3.529,2.695,8.006,3.835,12.396,3.161
	c1.695-0.58,3.47-0.916,5.262-0.989c2.602,0.335,4.691,2.302,5.189,4.876c0.402,2.562-0.465,5.161-2.334,6.961
	c-2.998,2.997-8.489,4.917-8.013,9.131c3.679-0.414,5.223-5.454,8.798-6.34c2.917-0.723,5.685,1.715,7.229,4.295
	c1.552,2.581,2.579,5.597,4.917,7.478c0.928,0.742,2.067,1.28,2.955,2.063c1.104,1.034,1.982,2.286,2.58,3.678
	c6.652,13.882,1.525,30.281-3.656,44.763c-3.449,9.646-4.316,20.49-7.789,30.137"/>
<path fill="none" stroke="#010101" stroke-miterlimit="10" d="M428.42,167.962l12.768-32.367c1.411-3.348,2.566-6.803,3.448-10.33
	c1.177-6.704,1.375-13.543,0.602-20.304c-0.037-4.907-0.947-9.767-2.688-14.354c-2.563-5.681-7.498-9.854-12.393-13.841
	c-2.83-2.356-6.773-4.794-9.873-2.787c-3.1,2.003-2.607,6.198-4.133,9.172c-0.969,1.556-2.214,2.919-3.676,4.029l-7.438,6.422
	c-2.993,2.581-6.468,5.307-10.328,4.977c-1.681-0.234-3.306-0.751-4.813-1.528l-19.826-8.86
	c-9.709-4.341-19.543-8.718-29.996-10.699c-10.451-1.981-21.75-1.386-30.982,3.802c-1.523,1.032-3.227,1.781-5.018,2.208
	c-1.441,0.152-2.896-0.031-4.254-0.536c-4.906-1.661-8.918-5.272-11.092-9.977c-1.102-1.747-1.102-3.972,0-5.723
	c0.813-0.678,1.702-1.268,2.643-1.755c2.426-2.115,3.152-5.583,1.779-8.491c-1.407-2.798-3.428-5.249-5.906-7.167
	c-5.602,2.094-11.051,4.565-16.316,7.396c-3.441,1.652-6.56,3.906-9.213,6.65c-2.768,3.514-4.867,7.504-6.198,11.775
	c-2.108,4.828-3.401,9.973-3.824,15.222c0,4.132,0.91,8.262,0.805,12.539c-0.164,7.145-3.573,13.942-3.758,21.087
	c-0.312,11.258,7.23,21.439,7.766,32.698c0.188,3.74-0.412,7.582,0.742,11.155c2.416,7.498,11.28,10.557,19.066,11.733
	c-1.528-11.795-2.932-24.414,2.394-35.116c1.883-3.433,4.052-6.704,6.485-9.771c6.693-9.111,13.839-19.436,24.788-21.792"/>
<path fill="#010101" d="M393.41,215.883c0.13-1.056,0.13-2.124,0-3.179c-0.124-0.852-0.35-1.676-0.492-2.521
	c-0.439-2.148-0.189-4.371,0.718-6.364c0.44-0.792,0.923-1.554,1.449-2.294c1.448-2.22,2.489-4.682,3.056-7.272"/>
<path fill="#010101" d="M393.494,204.026c2.352,4.336,6.463,7.064,8.736,11.463c0.972,1.861,1.07,4.05,0.27,5.99"/>
<path fill="#010101" d="M398.427,214.685c0,0.164-0.247,0-0.287-0.145c-0.258-1.328-0.207-2.703,0.145-4.01
	c0.814-1.91,1.506-3.87,2.062-5.867"/>
<path fill="#010101" d="M402.972,216.917c3.223-3.396,3.561-8.613,0.805-12.396c0.576,0.004,1.072-0.404,1.184-0.972
	c0.129-0.563,0.129-1.148,0-1.715c0.434,0.78,0.996,1.483,1.672,2.065c0.383,0.501,1.096,0.609,1.609,0.247
	c0.328-0.421,0.445-0.966,0.332-1.485c-0.391-2.205-1.211-4.311-2.418-6.199c0.538,1.109,1.33,2.068,2.312,2.812
	c0.154,0.136,0.35,0.224,0.557,0.247c0.27-0.021,0.523-0.145,0.703-0.352c0.625-0.707,0.941-1.639,0.867-2.58
	c-0.081-0.894-0.217-1.786-0.412-2.662c-0.242-1.588-0.14-3.211,0.287-4.752c-0.436,1.266-0.229,2.672,0.558,3.758
	c0.143,0.205,0.344,0.356,0.582,0.434c0.702-0.016,1.294-0.526,1.425-1.217c0.284-1.573-0.201-3.183-1.301-4.337l-5.393-7.458
	c0.688,0.706,1.287,1.489,1.795,2.331c1.121,1.659,2.408,3.198,3.846,4.585c0.365,0.399,0.816,0.715,1.318,0.91
	c0.551,0.188,1.158,0.053,1.572-0.353c0.589-0.824,0.7-1.901,0.285-2.83c-0.391-1.238-0.966-2.375-1.257-3.656
	c-0.365-1.334-0.217-2.755,0.415-3.984c-0.471,0.526-0.719,1.214-0.684,1.919c0.039,0.653,0.219,1.285,0.535,1.861
	c0.309,0.749,0.935,1.331,1.715,1.569c0.898,0.093,1.712-0.532,1.839-1.427c0.016-0.377-0.062-0.752-0.229-1.093
	c-0.545-1.31-1.337-2.501-2.334-3.514l1.78,1.715c0.288,0.381,0.743,0.591,1.217,0.557c0.343-0.121,0.634-0.353,0.829-0.659
	c1.158-1.61,1.158-3.78,0-5.393"/>
<path fill="#010101" d="M403.115,193.72L403.115,193.72"/>
<path fill="none" stroke="#010101" stroke-miterlimit="10" d="M11.689,277.438c51.782-9.873,73.391-27.27,104.001-46.541
	c30.612-19.268,36.251-27.945,83.553-48.828c33.937-14.978,75.476-15.16,92.95-20.306"/>
<path fill="none" stroke="#010101" stroke-miterlimit="10" d="M428.711,167.321c-2.696,6.582-1.969,14.074,1.941,20.015
	c3.897,6.52,10.796,10.655,18.384,11.027c9.811,0.187,18.072-6.712,26.441-11.814c12.557-7.628,26.946-11.714,41.639-11.835
	c7.127,0,17.418-7.975,19.232-7.582c2.52,0.557,5.182,19.64,6.074,18.03c2.334-4.133,4.959-14.461,6.445-19.811
	c1.033-3.758,2.062-5.783,2.83-4.482c1.201,2.064,6.197,34.683,7.086,32.414c2.25-6.198,5.328-52.074,8.055-48.543
	c2.416,3.143,3.824,25.652,9.979,39.389c2.437-3.922,2.331-11.956,4.668-16.872c2.062,5.288,3.227,10.04,4.83,15.058
	c0.291,0.904,0.975,4.544,1.904,4.814c1.592,0.434,3.822-5.495,4.482-7.003c3.057-6.839,10.988-5.95,18.424-5.04
	c12.498,1.523,25.035,3.656,37.615,2.932c12.578-0.721,25.488-4.668,34.348-13.612c3.117-3.161,5.66-8.449,2.662-11.733"/>
</svg>
