<?xml version="1.0" encoding="utf-8"?>
<!-- Generator: Adobe Illustrator 16.0.0, SVG Export Plug-In . SVG Version: 6.00 Build 0)  -->
<!DOCTYPE svg PUBLIC "-//W3C//DTD SVG 1.1//EN" "http://www.w3.org/Graphics/SVG/1.1/DTD/svg11.dtd">
<svg version="1.1" id="Layer_1" xmlns="http://www.w3.org/2000/svg" xmlns:xlink="http://www.w3.org/1999/xlink" x="0px" y="0px"
	 width="696.47px" height="287.059px" viewBox="0 0 696.47 287.059" enable-background="new 0 0 696.47 287.059"
	 xml:space="preserve">
<path fill="none" stroke="#010101" stroke-miterlimit="10" d="M301.622,78.655c-9.59,0.18-16.886,9.332-19.205,18.644
	c-2.318,9.313-1.137,19.102-1.836,28.674c-0.722,9.993-3.456,19.624-4.638,29.534c-1.999,16.424,0.46,33.049,3.099,49.382
	c1.318,8.147,2.757,16.442,6.395,23.854c2.603,4.98,5.725,9.665,9.315,13.994c5.733,7.292,11.809,14.585,19.78,19.319
	c7.974,4.739,18.246,6.577,26.558,2.459c3.814-2.116,7.275-4.812,10.271-7.99l22.721-21.981
	c6.187-5.611,11.817-11.802,16.824-18.483c10.483-15.143,14.21-33.957,10.291-51.951l1.259,34.188
	c-0.103,1.117,0.24,2.234,0.958,3.098c1.996,1.855,4.816-1.42,5.631-3.996l10.829-34.973c1.174-2.734,1.431-5.777,0.743-8.667
	c-1.001-2.779-4.797-4.66-7.015-2.722c3.996-0.138,7.435,3.438,8.436,7.356c0.729,4.001,0.448,8.119-0.828,11.988
	c-2.317,9.18-5.438,18.141-9.325,26.773c5.007,2.669,10.781,3.521,16.34,2.42c5.457-1.399,10.28-6.116,10.471-11.731v7.993
	c9.979-18.482,9.836-40.777-0.377-59.13c-3.318-5.815-7.597-11.05-10.831-16.904c-8.152-14.708-9.632-32.834-19.981-46.061
	c-6.577-8.321-16.083-13.811-26.579-15.348c-10.505-1.438-21.156,1.28-29.691,7.575c5.732-5.564,13.112-9.119,21.036-10.132
	c-0.616-1.998-3.114-2.757-5.233-3.138c-14.503-2.62-30.854-4.854-42.785,3.817c-2.358,2.107-4.986,3.896-7.811,5.315
	c-5.255,2-11.53-0.218-16.546,2.279c-2.615,1.588-4.836,3.745-6.496,6.314c-6.612,8.606-13.831,16.727-21.6,24.298
	c-8.292,7.993-17.983,17.485-16.665,28.995c0.739,6.296,4.815,11.851,5.575,18.148c0.939,7.991-3.517,15.385-6.453,22.837
	c-2.938,7.458-3.877,17.207,2.297,22.322c4.756,3.995,11.829,3.336,17.688,1.317c-4.356-16.086,1.698-32.891,4.513-49.318
	c0.614-5.511,1.834-10.939,3.638-16.184c2.119-5.133,5.996-9.851,11.448-11.23c5.457-1.38,11.992,1.699,13.01,7.133
	c-5.036,0.482-9.812-2.16-14.825-2.916c-5.015-0.758-11.492,2-11.311,6.974c4.592-1.966,9.446-3.251,14.407-3.816
	c5.033-0.539,10.048,1.147,13.731,4.616c6.414,6.774,3.757,17.705,0.699,26.516l-5.876,16.945
	c-1.499,4.316-3.017,8.935-1.999,13.391c1.834,6.649,8.63,10.626,15.329,8.97c4.138-1.201,7.575-4.556,11.85-4.954
	c3.358-0.321,7.555,0.955,9.554-1.758c2.299-3.136-1.301-7.057-3.716-10.113c-5.316-6.755-5.098-16.186-4.617-24.778
	c-0.058-3.211,0.626-6.389,2-9.292c2.477-4.355,7.754-6.333,12.726-6.833c3.534-0.546,7.145,0.071,10.296,1.757
	c3.15,1.813,4.768,5.455,3.996,9.011c-1.72,5.735-9.531,6.253-15.467,5.615c-3.399-0.359-7.456-1.216-8.615-4.436
	c-1.158-3.22,1.84-6.813,4.935-8.689c3.404-2.449,7.669-3.386,11.792-2.599c3.995,1.159,7.109,5.634,5.653,9.512
	c-1.275,3.36-5.217,4.9-8.793,5.214c-4.574,0.422-9.75-0.779-12.226-4.637c-1.325-2.488-2.014-5.271-1.999-8.094l-0.619-9.052
	c-0.194-1.34-0.078-2.708,0.337-3.997c0.76-1.451,1.925-2.643,3.358-3.438c4.593-3.453,10.095-5.499,15.827-5.894
	c5.714,0,11.752,3.099,13.584,8.511l-27.974-4.554"/>
<path fill="none" stroke="#010101" stroke-miterlimit="10" d="M342.386,116.061h-8.969c-0.108-1.233,0.526-2.411,1.617-2.997
	c1.074-0.551,2.251-0.881,3.456-0.96c3.931-0.519,7.866-0.932,11.814-1.238c1.103-0.141,2.223-0.102,3.318,0.12
	c1.307,0.398,2.517,1.082,3.534,1.995c2.54,2.12,4.828,4.527,6.817,7.174l-12.837-3.098c-3.234-0.778-6.452-1.558-9.628-2.58"/>
<path fill="none" stroke="#010101" stroke-miterlimit="10" d="M300.103,79.234c11.986-9.414,27.069-13.991,42.267-12.829
	c7.827,0.895,15.549,2.582,23.037,5.036c7.511,1.871,14.747,4.732,21.504,8.513c6.576,3.997,12.249,10.151,14.149,17.644
	c2.935,11.611-3.499,23.259-6.256,34.932c-1.725,8.46-2.335,17.1-1.819,25.72c-0.077,1.614,0.233,3.229,0.921,4.694
	c1.996,3.377,7.051,3.359,10.268,1.218c3.218-2.142,5.218-5.655,7.715-8.613c2.5-2.959,6.135-5.616,9.998-4.879
	c5.811,1.12,7.409,9.152,5.151,14.631c-2.258,5.477-6.854,9.73-9.135,15.208c-2.133,5.155-2.197,11.25-5.613,15.667
	c-2.82,3.614-7.337,5.352-11.272,7.73c-8.87,5.395-14.844,14.345-21.343,22.438c-10.47,13.112-22.888,24.545-36.826,33.892
	c-2.847,2.022-5.918,3.712-9.15,5.038c-8.844,2.996-18.551,2.01-26.618-2.698c-15.999-10.094-26.025-27.398-26.815-46.302
	c-0.07-9.483,4.072-18.511,11.31-24.638c7.833-6.155,18.404-7.374,28.356-7.293c11.788,0,24.995,2.457,31.818,11.99
	c2.216,3.132,3.433,7.771,0.874,10.65c-1.995,2.177-5.254,2.416-8.174,2.177c-7.334-0.599-14.368-3.155-21.682-3.996
	c-8.872-0.943-17.763,0.778-26.657,1.614c-2.074,0.384-4.21,0.159-6.156-0.657c-3.196-1.699-3.995-6.294-2.336-9.527
	c1.859-3.148,4.8-5.514,8.271-6.656c8.413-3.382,17.764-3.219,26.835-3.019c6.066-0.146,12.124,0.575,17.985,2.139
	c5.93,1.629,10.883,5.726,13.591,11.252c0.743,1.462,0.91,3.15,0.48,4.735c-1.044,2.896-4.745,3.656-7.818,3.876
	c-10.871,0.779-21.796,0.575-32.631-0.616c-3.997-0.441-8.855-0.544-10.793,2.917c-0.646,1.377-0.93,2.895-0.819,4.414
	c0.148,12.026,5.585,23.382,14.869,31.034c1.63,1.622,3.851,2.518,6.154,2.475c3.438-0.457,5.177-4.315,6.257-7.612l9.993-30.212"/>
<path fill="none" stroke="#010101" stroke-miterlimit="10" d="M306.201,144.5c2.336-1,2.138-4.738,0.181-6.354
	c-2.15-1.401-4.732-1.978-7.274-1.62c-2.921,0.107-5.829,0.325-8.735,0.66c-1.052,0.042-2.083,0.337-2.998,0.858
	c-2.579,1.76-1.459,5.995,0.979,7.993c3.396,2.74,8.231,2.917,12.468,1.997c4.235-0.917,8.234-2.896,12.451-3.998
	c-7.109,7.712-18.748,9.144-27.515,3.396c-2.001-1.417-3.997-3.675-3.457-6.113c0.521-1.758,1.763-3.21,3.417-3.995
	c8.805-4.782,19.773-2.531,25.979,5.337c-0.16-5.996-7.155-10.134-13.168-9.355c-6.016,0.779-11.012,4.934-15.329,9.19
	c-2.084,1.824-3.746,4.073-4.878,6.595c-1.659,4.396-0.158,9.252,0.258,13.99c0.819,9.27-2.695,18.306-6.155,26.937
	c-0.357,1.33-1.162,2.492-2.279,3.295c-1.475,0.619-3.159,0.485-4.516-0.359c-7.414-3.717-9.21-13.589-8.153-21.798
	c1.058-8.211,3.996-16.445,2.496-24.601c-0.84-4.597-3.058-8.832-3.996-13.368c-1.84-7.992,0-16.324,2.257-24.237
	c1.601-6.235,3.776-12.311,6.497-18.147c4.735-9.651,11.829-17.985,18.864-25.977c1.934-2.535,4.319-4.694,7.032-6.376
	c3.638-1.996,7.993-1.996,11.989-2.916c12.268-2.619,17.325-11.79,30.254-15.589c4.318-1.257,6.214-6.453,7.873-9.67
	c0.779-1.517,3.696-4.716,4.914-4.716c1.229,0.094,2.456,0.094,3.679,0c1.252-0.126,2.354-0.877,2.917-2
	c-3.05,0.034-5.805,1.837-7.051,4.616c-0.551,0.919-0.414,2.091,0.335,2.857c0.384,0.218,0.82,0.321,1.258,0.301
	c0.773,0.015,1.541-0.086,2.277-0.301c-2.24-0.214-4.457,0.626-5.996,2.279c-1.245,1.174-1.624,3.002-0.956,4.577
	c0.818,1.214,2.28,1.824,3.717,1.557c1.396-0.285,2.714-0.908,3.815-1.818c3.282-2.488,6.032-5.616,8.075-9.195l-2.863,4.855
	c-0.42,0.588-0.684,1.279-0.754,1.996c-0.042,0.746,0.496,1.398,1.233,1.499c0.497-0.058,0.952-0.3,1.281-0.68
	c2.571-2.516,4.917-5.247,7.015-8.173c-1.653,2.526-3.073,5.204-4.235,7.992c1.485-3.459,4.182-6.259,7.591-7.872
	c0.359,0.647,0.263,1.452-0.241,1.996c-0.831,1.368-1.563,2.797-2.174,4.279c-0.503,0.732-0.384,1.724,0.276,2.318
	c0.551,0.146,1.131,0.012,1.562-0.363c3.127-2.011,5.582-4.906,7.074-8.311c0.023,1.205,0.174,2.405,0.438,3.579
	c0.257,1.188,0.065,2.426-0.539,3.479c-0.659,1.03-2.031,1.333-3.062,0.673c-0.019-0.012-0.036-0.024-0.053-0.036
	c1.107,1.334,2.935,1.837,4.575,1.261c1.589-0.596,3.001-1.58,4.115-2.858c3.293-3.541,6.277-7.357,8.912-11.41
	c-2.538,5.996-9.05,10.25-9.996,16.745c1.401,0.043,2.737-0.58,3.6-1.678c0.846-1.085,1.791-2.098,2.821-3.017
	c-0.041,0.69,0.335,1.337,0.953,1.641c0.629,0.287,1.318,0.404,2,0.336c1.289,0.168,2.479-0.714,2.695-1.996
	c-0.143-0.841-0.88-1.451-1.736-1.439c-0.826,0.053-1.612,0.36-2.252,0.881c-1.493,1.057-2.703,2.465-3.518,4.097
	c-0.293,0.503-0.431,1.08-0.4,1.659c0.15,0.788,0.713,1.432,1.474,1.677c0.761,0.203,1.562,0.203,2.323,0
	c3.158-0.849,6.038-2.517,8.351-4.837c-2.492,1.305-4.461,3.42-5.593,5.997c-0.193,0.312-0.193,0.708,0,1.021
	c0.149,0.135,0.339,0.213,0.537,0.222c1.492-0.038,2.917-0.629,4.002-1.659l5.073-3.757c-2.317,1.622-4.378,3.582-6.116,5.814
	c1.821-2.548,4.583-4.269,7.673-4.778c0.39,0.748,0.468,1.612,0.223,2.419c-0.684,2.178-2.275,1.558-2.677,3.819
	c-0.462,2.637,2.615,5.833,3.994,7.053c2.702,2.359,5.996,5.876,8.416,8.413c2.893,3.386,5.325,7.143,7.23,11.169
	c3.473,6.836,3.473,14.846,5.097,22.364c1.988,9.19,6.422,17.674,12.825,24.559c3.24,3.475,6.978,6.532,9.494,10.55
	c4.456,7.116,4.397,15.984,4.199,24.439l-0.462,19.38c0.113,4.765-0.448,9.521-1.676,14.131c-1.271,4.654-4.47,8.542-8.795,10.686
	c5.561-11.729,11.231-25.038,6.842-37.249c-1.085-2.98-2.702-5.732-3.763-8.715c-2.36-6.75-1.58-14.265-3.857-21.06
	c-1.7-4.282-3.899-8.344-6.554-12.107c-7.798-12.483-13.669-26.071-17.405-40.308c-0.582-2.897-1.595-5.691-3.002-8.292
	c-1.312-1.947-2.904-3.688-4.732-5.156C388.881,51.7,367.97,44.296,346.515,44.919c-5.398,0-10.743,1.063-15.727,3.137
	c-3.119,1.788-6.367,3.342-9.713,4.656c-5.496,1.596-11.33,0-17.046-0.32c-5.712-0.317-12.39,1-15.006,5.996
	c-0.84,2.218-1.509,4.498-1.999,6.816c-1.132,2.895-2.718,5.593-4.696,7.991c-4.735,6.395-9.491,12.789-14.667,18.847
	c-4.917,5.735-10.271,11.208-13.989,17.825c-3.716,6.616-5.373,14.767-2.54,21.763c2.221,5.435,7.053,9.99,7.155,15.887
	c0,3.457-1.598,6.694-2.956,9.893c-2.528,5.981-4.073,12.333-4.577,18.803c-0.592,3.633,0.114,7.353,1.997,10.513
	c2.635,3.136,6.689,4.711,10.75,4.175c3.983-0.57,7.845-1.812,11.411-3.679"/>
<path fill="none" stroke="#010101" stroke-miterlimit="10" d="M357.733,25.181"/>
<path fill="none" stroke="#010101" stroke-miterlimit="10" d="M380.615,24.44c3.013,0.969,5.918,2.271,8.65,3.877"/>
<path fill="none" stroke="#010101" stroke-miterlimit="10" d="M396.979,34.672v0.28"/>
<path fill="none" stroke="#010101" stroke-miterlimit="10" d="M8.956,159.706c-2.61,6.367-1.908,13.615,1.877,19.362
	c3.772,6.308,10.445,10.309,17.785,10.668c9.492,0.18,17.484-6.493,25.578-11.429c12.151-7.38,26.069-11.333,40.286-11.45
	c6.895,0,16.848-7.715,18.604-7.334c2.438,0.539,5.015,19,5.876,17.442c2.258-3.998,4.796-13.989,6.235-19.165
	c0.999-3.636,1.996-5.595,2.74-4.337c1.158,1.998,5.995,33.553,6.854,31.358c2.177-5.996,5.156-50.378,7.793-46.962
	c2.335,3.04,3.699,24.816,9.651,38.106c2.359-3.795,2.257-11.567,4.519-16.323c1.996,5.116,3.119,9.713,4.673,14.567
	c0.279,0.875,0.942,4.397,1.841,4.658c1.54,0.419,3.699-5.316,4.337-6.775c2.956-6.615,10.629-5.756,17.825-4.876
	c12.089,1.474,24.219,3.538,36.388,2.837c12.168-0.698,24.658-4.517,33.229-13.169c3.018-3.059,5.475-8.174,2.575-11.352"/>
<path fill="none" stroke="#010101" stroke-miterlimit="10" d="M446.739,134.667c8.674,15.466,33.771,35.712,51.573,31.531
	c7.578-1.776,16.348-12.087,19.486-11.489c1.558,0.299,2.624,8.212,3.378,12.87c0.641,3.794,3.241,15.727,6.87,13.568
	c1.342-0.8,9.453-47.54,12.418-45.24c3.995,3.115,2.15,55.195,7.469,54.213c5.32-0.982,6.595-54.792,11.771-56.293
	c2.421,0.579,6.853,39.548,10.872,40.485c2.259,0.521,3.761-15.985,5.779-15.367c2.015,0.62,2.134,15.349,4.171,15.528
	c1.64,0.159,3.274-15.371,5.498-14.55c3.054,1.159,2.977,13.529,8.812,14.849c3.413,0.779,5.455-1.12,8.569-2.736
	c15.75-8.237,46.339-12.771,75.079-0.303"/>
</svg>
